<svg version="1.1" id="Layer_1" xmlns="http://www.w3.org/2000/svg" xmlns:xlink="http://www.w3.org/1999/xlink" x="0px" y="0px" width="100%" viewBox="0 0 500 500" enable-background="new 0 0 500 500" xml:space="preserve">

<path fill="#527C31" opacity="1.000000" stroke="none" d="
M269.783875,94.181419 
	C269.895966,97.582939 269.479858,101.123596 270.325012,104.331993 
	C270.805328,106.155228 273.138916,108.410797 274.995972,108.811272 
	C298.837097,113.952522 315.429535,127.500519 323.215485,150.744614 
	C325.999420,159.055618 327.191162,167.911926 328.912109,176.558655 
	C329.343872,178.727921 329.058411,180.700729 325.763885,180.938004 
	C316.405975,181.612030 307.077423,182.685242 297.730133,183.520645 
	C294.440491,183.814682 291.125275,183.812698 287.830170,184.058853 
	C284.308411,184.321960 283.617859,182.311798 282.945770,179.296967 
	C281.085510,170.952179 279.389618,162.469421 276.390076,154.507889 
	C273.278015,146.247787 258.746887,140.297241 249.050201,142.122879 
	C237.462875,144.304520 228.601196,149.910370 224.288498,161.433182 
	C219.139999,175.189163 222.492569,191.842712 237.192429,198.914825 
	C244.508972,202.434799 252.422394,204.738220 260.121124,207.433975 
	C271.332703,211.359802 282.818207,214.598175 293.784698,219.107849 
	C312.842194,226.944717 326.452484,239.895935 331.074860,261.002411 
	C334.544678,276.846130 333.718079,292.178314 327.467072,307.097900 
	C320.995911,322.542877 309.876770,333.694824 294.821320,340.886169 
	C290.673767,342.867279 286.284119,344.337006 282.034668,346.111023 
	C279.124176,347.326050 277.902679,346.155334 278.036713,343.299835 
	C278.521332,332.975555 276.914459,322.968933 274.042877,313.071198 
	C273.652954,311.727142 274.727661,308.826996 275.847717,308.351471 
	C286.796906,303.703156 289.078827,293.736389 290.802155,283.798401 
	C292.250916,275.443573 284.052948,262.483765 275.427338,259.189240 
	C261.489410,253.865784 247.175232,249.508621 233.324799,243.979706 
	C217.518692,237.670166 201.015137,231.671249 190.351013,217.545242 
	C185.164215,210.674698 181.695572,201.998199 179.335297,193.608612 
	C174.417603,176.128616 176.658188,158.826370 185.158371,142.821365 
	C189.516739,134.614990 195.439468,127.563431 203.155991,121.589874 
	C211.718750,114.961212 220.930389,110.879799 231.150238,108.550232 
	C234.956039,107.682716 236.551865,106.083160 236.047607,102.151024 
	C235.754059,99.861855 236.058289,97.496025 236.619171,94.640457 
	C248.024490,94.137962 258.904175,94.159691 269.783875,94.181419 
z" data-index="1" style="opacity: 1;"></path>
<path fill="#1C3C7C" opacity="1.000000" stroke="none" d="
M232.208664,332.013306 
	C231.310745,322.547180 229.358902,313.438080 226.303116,304.302460 
	C221.031418,288.542236 211.887238,276.186035 197.927200,267.676392 
	C192.992355,264.668243 186.884277,263.345795 181.141159,261.962097 
	C173.675537,260.163330 166.039688,259.071045 158.508423,257.383789 
	C158.752457,257.027802 158.965164,256.962738 159.177856,256.897675 
	C170.411423,250.777740 182.636124,251.718048 194.678452,252.290558 
	C216.313354,253.319107 233.592773,263.608459 247.674698,279.318787 
	C255.980225,288.584778 263.194885,298.784393 266.087067,311.350159 
	C267.477814,317.392548 269.197693,323.359161 270.699707,330.144348 
	C270.759552,339.013611 270.804047,347.101196 271.051117,355.182587 
	C271.181396,359.443848 271.665070,363.694305 271.989197,367.949646 
	C276.485657,367.984009 280.997192,368.260376 285.474182,367.981812 
	C289.604034,367.724823 293.407227,368.943939 294.128265,372.797882 
	C294.697449,375.840363 293.749115,380.271759 291.726685,382.499054 
	C283.791168,391.238464 275.149231,399.335175 266.801208,407.702087 
	C264.380585,410.128235 262.048798,412.644012 259.705048,415.145660 
	C254.582077,420.613708 249.362732,420.781494 244.107788,415.474823 
	C232.631622,403.885620 221.042847,392.397827 209.943771,380.456207 
	C208.283325,378.669708 208.160751,374.391602 208.959686,371.762299 
	C209.475571,370.064484 212.860504,368.563324 215.148331,368.215790 
	C220.358643,367.424286 225.685120,367.397644 231.543091,366.649475 
	C232.150742,354.830292 232.179703,343.421814 232.208664,332.013306 
z" data-index="2" style="opacity: 1;"></path>
<path fill="#517B32" opacity="1.000000" stroke="none" d="
M222.949249,345.889465 
	C203.872192,340.624695 189.758636,329.348450 179.441208,313.085876 
	C174.106812,304.677734 173.253036,294.915070 171.297226,285.513611 
	C171.102203,284.576111 172.770645,282.374969 173.822952,282.192169 
	C182.401291,280.702087 191.013153,279.256226 199.676224,278.506409 
	C201.869888,278.316528 204.572968,280.320709 206.547607,281.925171 
	C215.533127,289.226166 219.234482,300.038239 222.305161,310.287018 
	C225.265717,320.168335 224.967300,331.050201 225.796875,341.516602 
	C225.905807,342.891113 224.213272,344.408417 222.949249,345.889465 
z" data-index="3" style="opacity: 1;"></path>
<path fill="#44567B" opacity="1.000000" stroke="none" d="
M271.985046,367.485840 
	C271.665070,363.694305 271.181396,359.443848 271.051117,355.182587 
	C270.804047,347.101196 270.759552,339.013611 270.680969,330.564026 
	C271.147644,342.473633 271.564270,354.747803 271.985046,367.485840 
z" data-index="4"></path>
<path fill="#40547C" opacity="1.000000" stroke="none" d="
M232.139099,332.479004 
	C232.179703,343.421814 232.150742,354.830292 231.952911,366.621277 
	C231.879196,355.650757 231.974365,344.297729 232.139099,332.479004 
z" data-index="5"></path>
<path fill="#9AB186" opacity="1.000000" stroke="none" d="
M269.724854,93.734291 
	C258.904175,94.159691 248.024490,94.137962 236.704163,94.203140 
	C236.786728,93.868004 237.310471,93.077507 237.833069,93.078262 
	C248.444077,93.093498 259.054932,93.199402 269.724854,93.734291 
z" data-index="6"></path>
<path fill="#5D6E82" opacity="1.000000" stroke="none" d="
M159.068024,256.595245 
	C158.965164,256.962738 158.752457,257.027802 158.209015,257.133972 
	C157.180817,257.211853 156.483353,257.248566 155.785889,257.285309 
	C155.770905,256.954468 155.755936,256.623657 155.740952,256.292816 
	C156.813370,256.292816 157.885773,256.292816 159.068024,256.595245 
z" data-index="7"></path>
</svg>